<?xml version="1.0" standalone="no"?>
<!DOCTYPE svg PUBLIC "-//W3C//DTD SVG 20010904//EN"
 "http://www.w3.org/TR/2001/REC-SVG-20010904/DTD/svg10.dtd">
<svg version="1.0" xmlns="http://www.w3.org/2000/svg"
 width="1600.000000pt" height="1200.000000pt" viewBox="0 0 1600.000000 1200.000000"
 preserveAspectRatio="xMidYMid meet">

<g transform="translate(0.000000,1200.000000) scale(0.100000,-0.100000)"
fill="#000000" stroke="none">
<path d="M0 6000 l0 -6000 8000 0 8000 0 0 6000 0 6000 -8000 0 -8000 0 0
-6000z m11131 3840 c215 -11 568 -36 632 -46 l37 -6 0 -749 0 -749 -513 0
c-582 1 -654 -5 -811 -64 -81 -31 -172 -92 -221 -148 -46 -53 -107 -180 -131
-273 -16 -63 -18 -137 -21 -722 l-4 -653 820 0 821 0 0 -22 c0 -22 -196 -1561
-206 -1615 l-6 -33 -714 0 -714 0 -2 -2137 -3 -2138 -862 -3 -863 -2 0 2140 0
2140 -717 0 -718 -1 0 833 0 833 717 3 717 2 4 748 c3 628 7 766 21 867 126
903 620 1500 1422 1720 105 29 311 67 424 78 82 9 703 6 891 -3z"/>
</g>
</svg>
